<svg id="Layer_1" data-name="Layer 1" xmlns="http://www.w3.org/2000/svg" viewBox="0 0 548 772.03"><defs><style>.cls-1{fill:#fff;}</style></defs><path class="cls-1" d="M750.5,154.5C683.4,156.26,369.59,173.71,365,174c-77.84,4.92-114,52-114.5,96.77V806.5a72,72,0,0,0,51.09,68.91A72,72,0,0,0,370.5,926.5L571.39,913a16,16,0,0,0,14.93-16V716.69a22,22,0,0,0-23.47-22l-58.14,3.87c-14.82,1-22.87-17-12.27-27.39L608.81,557.16A22,22,0,0,1,638.38,556l116.69,98.3c11,9.27,5.12,27.24-9.24,28.2l-62.68,4.18a22,22,0,0,0-20.53,21.95l.1,181a16,16,0,0,0,17.07,16l46.71-3.15a72,72,0,0,0,72-72v-628C798.5,170,781,153.7,750.5,154.5Zm10.79,49.78-246.21,14.3a4,4,0,0,0-3.63,5,31.69,31.69,0,0,1,1.15,8.47V413.59a22,22,0,0,0,23.46,22l58.15-3.88c14.82-1,22.87,17,12.26,27.39L490.1,573.12a22,22,0,0,1-29.57,1.12L343.85,476c-11-9.28-5.13-27.25,9.24-28.21l62.67-4.17a22,22,0,0,0,20.54-22L437,232.16a22.06,22.06,0,0,0-.8-5.91,4,4,0,0,0-4.07-2.86L370,227c-39,1-69.5,26-69.5,70.5,0,90.5.5,533.31.5,553.87-5.54.32-34-5.37-34-48.37,0-32.16,1.46-425.81.53-524.21C267,223,315,192,362,189c10.09-.64,304.07-18,376-21C791,163,783,203,761.29,204.28Z" transform="translate(-250.5 -154.47)"/></svg>