<?xml version="1.0" encoding="UTF-8"?>
<svg xmlns="http://www.w3.org/2000/svg" viewBox="0 0 487.05 476.86">
  <defs>
    <style>
      .cls-1, .cls-2 {
        fill: #fff;
      }

      .cls-3 {
        fill: #fafafa;
      }

      .cls-4 {
        opacity: .6;
      }

      .cls-5 {
        fill: #ffbf9d;
      }

      .cls-6 {
        fill: #e0e0e0;
      }

      .cls-7 {
        fill: #ff9a6c;
      }

      .cls-8 {
        fill: #1e3238;
      }

      .cls-2 {
        opacity: .7;
      }

      .cls-9 {
        opacity: .3;
      }

      .cls-10 {
        fill: #97a2d4;
      }

      .cls-11 {
        fill: #5165ba;
      }

      .cls-12 {
        fill: #99a4d6;
      }
    </style>
  </defs>
  <g id="Background_Complete" data-name="Background Complete">
    <g>
      <path class="cls-10" d="M485.47,231.72c-5.45,45.33-26.34,98.07-67.95,122.34-62.86,36.68-57.69,92.94-180.31,117.59-19.12,3.84-37.26,5.48-54.36,5.18-9.19-.16-18.09-.88-26.68-2.12C78.28,463.5,25.92,409.73,6.78,344.75c-25.19-85.46,25.44-141.5,59-175.28C99.33,135.7,124.03,30.59,244.39,5.42,262.74,1.59,281.51-.38,300.26,.06c42.81,.98,89.49,14.89,121.75,44.02,2.42,2.19,4.78,4.46,7.08,6.8,44.84,45.77,63.82,119.03,56.38,180.84Z"/>
      <path class="cls-2" d="M485.47,231.72c-5.45,45.33-26.34,98.07-67.95,122.34-62.86,36.68-57.69,92.94-180.31,117.59-19.12,3.84-37.26,5.48-54.36,5.18-9.19-.16-18.09-.88-26.68-2.12C78.28,463.5,25.92,409.73,6.78,344.75c-25.19-85.46,25.44-141.5,59-175.28C99.33,135.7,124.03,30.59,244.39,5.42,262.74,1.59,281.51-.38,300.26,.06c42.81,.98,89.49,14.89,121.75,44.02,2.42,2.19,4.78,4.46,7.08,6.8,44.84,45.77,63.82,119.03,56.38,180.84Z"/>
    </g>
    <g>
      <rect class="cls-3" x="159.55" y="370.4" width="49.49" height="13.09"/>
      <path class="cls-6" d="M188.11,397.28s-.01-.09-.02-.24c0-.18,0-.4-.02-.67,0-.62-.02-1.48-.04-2.58-.02-2.26-.05-5.51-.08-9.61l.15,.15c-11.3,.02-29.27,.06-49.49,.1,.11-.11-.25,.25,.25-.25h0v.84s0,.84,0,.84c0,.56,0,1.12,0,1.67,0,1.11,0,2.21,0,3.3,0,2.19,0,4.33,0,6.44l-.25-.25c14.09,.04,26.43,.08,35.27,.11,4.41,.03,7.94,.05,10.41,.07,1.2,.01,2.14,.02,2.82,.03,.3,0,.55,.01,.74,.02,.17,0,.26,.01,.26,.02,0,0-.07,.01-.23,.02-.18,0-.42,0-.71,.02-.66,0-1.58,.02-2.76,.03-2.46,.02-5.97,.04-10.35,.07-8.89,.03-21.28,.07-35.44,.11h-.25s0-.25,0-.25c0-2.11,0-4.25,0-6.44,0-1.09,0-2.19,0-3.3,0-.55,0-1.11,0-1.67v-.84s0-.42,0-.42v-.4h0v-.02h0c.5-.51,.14-.14,.26-.26,20.22,.04,38.19,.08,49.49,.1h.15s0,.15,0,.15c-.04,4.14-.06,7.42-.08,9.7-.02,1.09-.03,1.93-.04,2.54,0,.26-.01,.48-.02,.64,0,.14-.01,.21-.02,.21Z"/>
    </g>
    <g>
      <rect class="cls-3" x="83.57" y="219.68" width="49.49" height="13.09"/>
      <path class="cls-6" d="M112.13,246.56s-.01-.09-.02-.24c0-.18,0-.4-.02-.67,0-.62-.02-1.48-.04-2.58-.02-2.26-.05-5.51-.08-9.61l.15,.15c-11.3,.02-29.27,.06-49.49,.1,.11-.11-.25,.25,.25-.25h0v.84s0,.84,0,.84c0,.56,0,1.12,0,1.67,0,1.11,0,2.21,0,3.3,0,2.19,0,4.33,0,6.44l-.25-.25c14.09,.04,26.43,.08,35.27,.11,4.41,.03,7.94,.05,10.41,.07,1.2,.01,2.14,.02,2.82,.03,.3,0,.55,.01,.74,.02,.17,0,.26,.01,.26,.02,0,0-.07,.01-.23,.02-.18,0-.42,0-.71,.02-.66,0-1.58,.02-2.76,.03-2.46,.02-5.97,.04-10.35,.07-8.89,.03-21.28,.07-35.44,.11h-.25s0-.25,0-.25c0-2.11,0-4.25,0-6.44,0-1.09,0-2.19,0-3.3,0-.55,0-1.11,0-1.67v-.84s0-.42,0-.42v-.4h0v-.02h0c.5-.51,.14-.14,.26-.26,20.22,.04,38.19,.08,49.49,.1h.15s0,.15,0,.15c-.04,4.14-.06,7.42-.08,9.7-.02,1.09-.03,1.93-.04,2.54,0,.26-.01,.48-.02,.64,0,.14-.01,.21-.02,.21Z"/>
    </g>
    <g>
      <path class="cls-6" d="M396.47,193.69s-.01-.09-.02-.24c0-.18,0-.4-.02-.67,0-.62-.02-1.48-.04-2.58-.02-2.26-.05-5.51-.08-9.61l.15,.15c-11.3,.02-29.27,.06-49.49,.1,.11-.11-.25,.25,.25-.25h0v.42s0,.42,0,.42v.84c0,.56,0,1.12,0,1.67,0,1.11,0,2.21,0,3.3,0,2.19,0,4.33,0,6.44l-.25-.25c14.09,.04,26.43,.08,35.27,.11,4.41,.03,7.94,.05,10.41,.07,1.2,.01,2.14,.02,2.81,.03,.3,0,.55,.01,.74,.02,.17,0,.26,.01,.26,.02,0,0-.07,.01-.23,.02-.18,0-.42,0-.71,.02-.66,0-1.58,.02-2.76,.03-2.46,.02-5.97,.04-10.35,.07-8.89,.03-21.28,.07-35.44,.11h-.25s0-.25,0-.25c0-2.11,0-4.25,0-6.44,0-1.09,0-2.19,0-3.3,0-.55,0-1.11,0-1.67v-.84s0-.42,0-.42v-.39h0v-.02h0c.5-.51,.14-.14,.26-.26,20.22,.04,38.19,.08,49.49,.1h.15s0,.15,0,.15c-.04,4.14-.06,7.42-.08,9.7-.02,1.09-.03,1.93-.04,2.54,0,.26-.01,.48-.02,.64,0,.14-.01,.21-.02,.21Z"/>
      <path class="cls-6" d="M403.18,180.6s-.01-.09-.02-.25c0-.19-.01-.42-.02-.69-.01-.64-.03-1.52-.05-2.63-.02-2.3-.06-5.54-.1-9.53l.18,.18c-7.7,.02-18.18,.04-29.73,.07-.23,.23,.3-.31,.25-.25h0v.43s0,.43,0,.43v.86c0,.57,0,1.14,0,1.7,0,1.13,0,2.24,0,3.33,0,2.19,0,4.31,0,6.35l-.24-.24c8.58,.05,15.98,.09,21.27,.11,2.61,.03,4.71,.05,6.2,.07,.7,.01,1.25,.02,1.67,.03,.38,0,.59,.02,.6,.03,0,.01-.17,.02-.54,.03-.41,0-.95,.02-1.62,.03-1.48,.02-3.55,.04-6.14,.07-5.34,.03-12.78,.07-21.43,.11h-.24s0-.24,0-.24c0-2.03,0-4.16,0-6.35,0-1.1,0-2.21,0-3.33,0-.56,0-1.13,0-1.7v-.86s0-.43,0-.43v-.4h0v-.02h0c-.06,.05,.48-.48,.25-.26,11.55,.03,22.03,.05,29.73,.07h.18s0,.18,0,.18c-.04,4.03-.07,7.31-.1,9.64-.02,1.09-.03,1.95-.05,2.58-.01,.59-.03,.89-.04,.87Z"/>
    </g>
    <g>
      <path class="cls-6" d="M320.32,286.51s-.01-.09-.02-.24c0-.18,0-.4-.02-.67,0-.62-.02-1.48-.04-2.58-.02-2.26-.05-5.51-.08-9.61l.15,.15c-11.3,.02-29.27,.06-49.49,.1,.11-.11-.25,.25,.25-.25h0v.42s0,.42,0,.42v.84c0,.56,0,1.12,0,1.67,0,1.11,0,2.21,0,3.3,0,2.19,0,4.33,0,6.44l-.25-.25c14.09,.04,26.43,.08,35.27,.11,4.41,.03,7.94,.05,10.41,.07,1.2,.01,2.14,.02,2.81,.03,.3,0,.55,.01,.74,.02,.17,0,.26,.01,.26,.02,0,0-.07,.01-.23,.02-.18,0-.42,0-.71,.02-.66,0-1.58,.02-2.76,.03-2.46,.02-5.97,.04-10.35,.07-8.89,.03-21.28,.07-35.44,.11h-.25s0-.25,0-.25c0-2.11,0-4.25,0-6.44,0-1.09,0-2.19,0-3.3,0-.55,0-1.11,0-1.67v-.84s0-.42,0-.42v-.39h0v-.02h0c.5-.51,.14-.14,.26-.26,20.22,.04,38.19,.08,49.49,.1h.15s0,.15,0,.15c-.04,4.14-.06,7.42-.08,9.7-.02,1.09-.03,1.93-.04,2.54,0,.26-.01,.48-.02,.64,0,.14-.01,.21-.02,.21Z"/>
      <path class="cls-6" d="M327.03,273.42s-.01-.09-.02-.25c0-.19-.01-.42-.02-.69-.01-.64-.03-1.52-.05-2.63-.02-2.3-.06-5.54-.1-9.53l.18,.18c-7.7,.02-18.18,.04-29.73,.07-.23,.23,.3-.31,.25-.25h0v.43s0,.43,0,.43v.86c0,.57,0,1.14,0,1.7,0,1.13,0,2.24,0,3.33,0,2.19,0,4.31,0,6.35l-.24-.24c8.58,.05,15.98,.09,21.27,.11,2.61,.03,4.71,.05,6.2,.07,.7,.01,1.25,.02,1.67,.03,.38,0,.59,.02,.6,.03,0,.01-.17,.02-.54,.03-.41,0-.95,.02-1.62,.03-1.48,.02-3.55,.04-6.14,.07-5.34,.03-12.78,.07-21.43,.11h-.24s0-.24,0-.24c0-2.03,0-4.16,0-6.35,0-1.1,0-2.21,0-3.33,0-.56,0-1.13,0-1.7v-.86s0-.43,0-.43v-.4h0v-.02h0c-.06,.05,.48-.48,.25-.26,11.55,.03,22.03,.05,29.73,.07h.18s0,.18,0,.18c-.04,4.03-.07,7.31-.1,9.64-.02,1.09-.03,1.95-.05,2.58-.01,.59-.03,.89-.04,.87Z"/>
    </g>
  </g>
  <g id="Floor">
    <path class="cls-8" d="M464.86,451.53c0,.14-98.79,.26-220.62,.26s-220.64-.12-220.64-.26,98.77-.26,220.64-.26,220.62,.12,220.62,.26Z"/>
  </g>
  <g id="Plant">
    <g>
      <path class="cls-11" d="M140.22,245.62c-10.73,5.56-18.96,15.13-24.87,25.66-5.92,10.54-9.73,22.1-13.51,33.58l-3.3,59.2c12.48-21.24,22.5-46.21,25.21-70.69-2.77-.25-5.54-.49-8.31-.74,5.57-.85,10.25-4.89,13.22-9.67,2.97-4.79,4.51-10.3,6-15.74-3.38,.5-6.76,1-10.14,1.51,7.94-5.3,13.69-13.77,15.69-23.1Z"/>
      <g class="cls-9">
        <path d="M140.22,245.62c-10.73,5.56-18.96,15.13-24.87,25.66-5.92,10.54-9.73,22.1-13.51,33.58l-3.3,59.2c12.48-21.24,22.5-46.21,25.21-70.69-2.77-.25-5.54-.49-8.31-.74,5.57-.85,10.25-4.89,13.22-9.67,2.97-4.79,4.51-10.3,6-15.74-3.38,.5-6.76,1-10.14,1.51,7.94-5.3,13.69-13.77,15.69-23.1Z"/>
      </g>
      <path class="cls-11" d="M96.69,377.92s-27.1-32.43-26.78-63.4h10.95s-11.89-7.82-10.95-12.2c.94-4.38,1.25-20.95,1.25-20.95l10.01,2.5s-7.51-3.75-8.44-9.7c-.94-5.94,2.19-33.46,2.19-33.46,0,0,12.2,12.82,15.95,25.96,3.75,13.14,13.6,28.46,10.71,68.49-2.89,40.03-4.88,42.75-4.88,42.75Z"/>
      <path class="cls-11" d="M110.42,380.98s29.36-19.56,35.88-44.52l-8.8-2.39s11.27-3.68,11.47-7.41c.2-3.73,3.58-17.12,3.58-17.12l-8.59-.18s6.86-1.38,8.91-5.95,5.56-27.38,5.56-27.38c0,0-12.61,7.64-18.5,17.38-5.89,9.74-17.16,19.9-23.6,52.72-6.43,32.82-5.91,34.85-5.91,34.85Z"/>
      <path class="cls-8" d="M82.31,269s.04,.11,.1,.34c.06,.25,.14,.58,.24,1,.2,.91,.49,2.2,.86,3.85,.38,1.67,.81,3.72,1.29,6.11,.48,2.38,1.05,5.1,1.59,8.11,1.16,6.01,2.39,13.2,3.65,21.2,1.22,8,2.44,16.82,3.53,26.11,1.06,9.29,1.89,18.16,2.52,26.23,.6,8.08,1.04,15.36,1.29,21.48,.15,3.06,.22,5.83,.3,8.26,.08,2.43,.12,4.53,.14,6.24,.02,1.69,.03,3.01,.04,3.94,0,.43,0,.77,0,1.03,0,.23,0,.35-.02,.35,0,0-.02-.12-.03-.35-.01-.26-.03-.6-.05-1.02-.03-.93-.08-2.25-.14-3.94-.05-1.71-.12-3.8-.23-6.23-.1-2.43-.2-5.2-.37-8.25-.29-6.11-.77-13.39-1.4-21.46-.66-8.07-1.5-16.93-2.56-26.21-1.08-9.28-2.29-18.09-3.48-26.09-1.23-8-2.42-15.19-3.53-21.21-.53-3.02-1.06-5.73-1.52-8.12-.45-2.39-.85-4.44-1.2-6.12-.33-1.66-.58-2.95-.77-3.87-.08-.42-.14-.76-.19-1.01-.04-.23-.05-.35-.05-.35Z"/>
      <path class="cls-11" d="M92.93,397.78s-24.8-28.14-32.5-45.14l5.81-2.48c-4.21,.7-8.53-1.12-11.8-3.87-3.27-2.75-5.67-6.37-8.02-9.93l7.66-1.29c-6.96-1.95-13.1-6.71-16.73-12.96,9.04,1.49,17.21,6.45,23.95,12.65,5.46,5.02,10.07,10.86,14.51,16.81,2.16,2.91,4.06,6,5.64,9.27,4.17,8.61,11.49,26.61,11.48,36.95Z"/>
      <path class="cls-8" d="M146.69,292.41s-.03,.1-.11,.29c-.1,.21-.22,.48-.38,.82-.36,.75-.87,1.79-1.51,3.12-1.33,2.7-3.21,6.63-5.49,11.51-2.29,4.87-4.92,10.72-7.74,17.25-2.8,6.54-5.79,13.77-8.76,21.43-2.95,7.66-5.61,15.03-7.94,21.75-2.3,6.73-4.29,12.83-5.88,17.97-1.59,5.14-2.85,9.31-3.68,12.21-.42,1.42-.75,2.53-.98,3.32-.11,.36-.2,.64-.27,.86-.06,.19-.1,.29-.11,.29,0,0,.01-.1,.06-.3,.06-.22,.13-.51,.22-.87,.21-.8,.51-1.92,.89-3.35,.77-2.91,1.97-7.1,3.52-12.26,1.54-5.16,3.49-11.27,5.77-18.02,2.3-6.74,4.95-14.11,7.91-21.78,2.97-7.66,5.97-14.9,8.8-21.43,2.85-6.53,5.52-12.36,7.85-17.22,2.32-4.86,4.26-8.77,5.64-11.44,.68-1.31,1.21-2.34,1.6-3.08,.18-.33,.32-.59,.43-.79,.1-.18,.15-.27,.16-.26Z"/>
      <path class="cls-8" d="M95.03,409.84s-.06-.18-.12-.52c-.07-.4-.15-.89-.24-1.49-.19-1.3-.51-3.17-.97-5.47-.45-2.3-1.08-5.02-1.9-8.01-.84-2.98-1.87-6.23-3.12-9.58-1.27-3.34-2.65-6.46-3.99-9.26-1.37-2.78-2.69-5.24-3.87-7.27-1.18-2.03-2.17-3.65-2.89-4.75-.32-.52-.59-.94-.8-1.28-.18-.3-.27-.46-.25-.47,.01-.01,.13,.13,.34,.41,.24,.33,.53,.73,.89,1.23,.77,1.07,1.81,2.66,3.04,4.67,1.23,2.01,2.59,4.46,3.99,7.24,1.37,2.79,2.77,5.92,4.05,9.28,1.26,3.37,2.28,6.64,3.1,9.64,.79,3.01,1.39,5.75,1.79,8.07,.41,2.32,.68,4.2,.81,5.51,.06,.61,.11,1.1,.15,1.51,.03,.35,.03,.53,.02,.53Z"/>
      <rect class="cls-12" x="73.48" y="403.22" width="54.27" height="11.07"/>
      <polygon class="cls-12" points="78.65 414.29 84.52 451.53 117.32 451.53 122.79 414.29 78.65 414.29"/>
      <path class="cls-8" d="M124.42,414.29c0,.14-10.27,.26-22.93,.26s-22.93-.12-22.93-.26,10.26-.26,22.93-.26,22.93,.12,22.93,.26Z"/>
    </g>
  </g>
  <g id="Table">
    <g>
      <g>
        <path class="cls-12" d="M377.16,236.6c.3,.75,.43,1.57,.38,2.38,.19-.95,.56-1.87,1.08-2.69,.19-.31,.5-.64,.86-.55,.35,.09,.47,.53,.48,.9,.04,1-.19,2.01-.66,2.9,.65-.82,1.5-1.48,2.45-1.9,.17-.07,.37-.14,.53-.04,.18,.11,.19,.38,.16,.59-.24,1.68-1.43,3.2-3.01,3.83l-.52,.08c-1.1-.3-2.08-1.04-2.69-2.01-.61-.97-.83-2.17-.62-3.3,.08-.43,.32-.93,.76-.94,.39,0,.66,.39,.8,.75Z"/>
        <g>
          <g>
            <path class="cls-11" d="M388.79,259.84c-1.2-.87-3.47-1.7-4.93-1.99,1.03-3.53,1.09-7.35,.14-10.9-.38-1.41-.92-2.79-1.84-3.92-.92-1.13-2.25-1.98-3.7-2.07-1.57-.1-3.07,.72-4.11,1.91l-1.82,4.21c-.11,.61-.18,1.23-.22,1.85-.22,4.07,.71,8.2,2.66,11.78-1.9,2.09-3.95,5.7-3.33,9.88h21.61c.38-4.01-1.15-8.36-4.45-10.74Z"/>
            <path class="cls-8" d="M374,262.04s.05-.09,.16-.23c.12-.14,.28-.38,.53-.62,.48-.52,1.28-1.2,2.4-1.83,1.11-.63,2.57-1.17,4.26-1.36,1.68-.2,3.6,0,5.42,.76,1.81,.8,3.26,2.06,4.27,3.42,1.02,1.36,1.63,2.79,1.94,4.03,.31,1.24,.36,2.29,.31,3,0,.36-.07,.63-.08,.82-.03,.19-.05,.28-.06,.28-.1,0,.27-1.6-.39-4.04-.33-1.21-.95-2.59-1.95-3.91-1-1.31-2.42-2.53-4.16-3.3-1.76-.74-3.62-.93-5.26-.76-1.65,.17-3.08,.67-4.18,1.26-2.23,1.19-3.14,2.56-3.21,2.48Z"/>
            <path class="cls-8" d="M372.19,250.47s-.07-.55-.04-1.43c.04-.88,.15-2.12,.58-3.42,.44-1.3,1.18-2.35,1.85-2.94,.67-.61,1.21-.8,1.22-.77,.03,.05-.46,.31-1.06,.94-.61,.61-1.28,1.63-1.7,2.88-.42,1.25-.56,2.46-.66,3.33-.09,.87-.14,1.42-.19,1.41Z"/>
            <path class="cls-8" d="M384.69,267.83c-.06-.07,.89-.95,2.02-2.06,1.13-1.12,2.02-2.06,2.09-1.99,.07,.06-.71,1.1-1.86,2.23-1.14,1.13-2.19,1.9-2.25,1.83Z"/>
            <path class="cls-8" d="M382.28,266.57c-.09-.02,.07-.98,.35-2.14,.28-1.16,.58-2.09,.67-2.07,.09,.02-.07,.98-.35,2.14-.28,1.16-.58,2.09-.67,2.07Z"/>
            <path class="cls-8" d="M375.86,264.17c.07-.05,.7,.79,1.23,1.95,.53,1.17,.74,2.19,.66,2.21-.09,.03-.44-.94-.96-2.08-.52-1.14-1.01-2.04-.93-2.09Z"/>
            <path class="cls-8" d="M382.8,254.07c-.07-.05,.58-1.04,1.46-2.21,.88-1.16,1.65-2.06,1.72-2.01,.07,.05-.58,1.04-1.46,2.21-.88,1.16-1.65,2.06-1.72,2.01Z"/>
            <path class="cls-8" d="M381.28,247.31c-.07-.05,.67-1.26,1.65-2.71,.99-1.44,1.85-2.57,1.93-2.52,.07,.05-.67,1.26-1.65,2.71-.99,1.44-1.85,2.57-1.93,2.52Z"/>
            <path class="cls-8" d="M378.84,249.09c.09,0,.23,1.02,.31,2.29,.08,1.27,.07,2.3-.02,2.31-.09,0-.23-1.02-.31-2.29-.08-1.27-.07-2.3,.02-2.31Z"/>
            <path class="cls-8" d="M369.13,252.16c.04-.08,1.44,.57,3.07,1.57,1.63,.99,2.85,1.94,2.8,2.01-.05,.08-1.35-.75-2.97-1.73-1.61-.99-2.94-1.77-2.9-1.85Z"/>
            <g class="cls-9">
              <path d="M376.91,257.98c1.05-.61,2.29-.8,3.5-.86,1.26-.06,2.67,.06,3.52,.99v.04c-3.03-.22-6.55,.82-8.88,2.77-.02-1.22,.8-2.33,1.85-2.94Z"/>
            </g>
          </g>
          <path class="cls-12" d="M387.19,215.53c.62-.17,1.27-.19,1.9-.07-.73-.24-1.41-.61-2.01-1.1-.22-.18-.45-.45-.35-.72,.1-.27,.46-.31,.75-.29,.79,.07,1.55,.34,2.2,.79-.58-.58-1.01-1.31-1.25-2.1-.04-.14-.07-.31,.02-.42,.11-.13,.31-.11,.48-.07,1.29,.35,2.37,1.42,2.71,2.72v.41c-.33,.83-1,1.53-1.81,1.91s-1.78,.45-2.64,.18c-.33-.1-.7-.34-.66-.68,.03-.31,.37-.48,.67-.56Z"/>
          <path class="cls-12" d="M430.78,187.9c.11,.63,.08,1.28-.09,1.9,.3-.71,.73-1.36,1.26-1.91,.2-.21,.49-.41,.75-.29,.26,.13,.27,.49,.23,.77-.13,.78-.47,1.52-.97,2.13,.63-.53,1.39-.9,2.19-1.07,.14-.03,.31-.05,.42,.05,.12,.12,.09,.32,.03,.48-.45,1.26-1.61,2.24-2.93,2.47l-.41-.02c-.8-.41-1.44-1.13-1.76-1.98-.31-.85-.3-1.81,.05-2.64,.13-.32,.4-.66,.74-.6,.3,.06,.44,.41,.5,.71Z"/>
          <path class="cls-11" d="M400.43,244.42c.32,.01,.62,.05,.93,.08,.56-6.17-1.31-12.44,.57-18.35l-.25,.32c-2.27,.3-4.64,.21-6.78-.61-2.14-.82-4.04-2.42-4.9-4.54-.86-2.12-.54-4.76,1.04-6.42,2.14-2.23,5.9-2.12,8.58-.58,2.59,1.48,4.4,3.98,6.11,6.43,.9-.71,1.89-1.29,2.95-1.7-2.98-4.1-5.86-8.41-6.8-13.36-1.03-5.42,1-11.84,6.03-14.11,4.29-1.93,9.66-.19,12.68,3.41,.24,.28,.44,.59,.65,.88l-.1-.29c.75-1.88,2.21-3.49,4.08-4.29s4.1-.74,5.85,.28c1.75,1.02,2.93,3,2.87,5.02-.07,2.28-1.67,4.34-3.72,5.34-1.97,.96-4.27,1.03-6.41,.59,.27,1.9,.26,3.86-.03,5.76-.67,4.31-2.59,8.32-4.88,12.06,.63,.43,1.23,.9,1.76,1.45,3.88,4.07,4.13,10.59,2.1,15.84-2.03,5.24-7.55,9.11-11.37,13.23h0c1.64,2.78,2.51,6.1,2.94,9.22,1.33-2.78,4.3-4.77,7.4-4.75,1.67,.01,3.54,.75,4.05,2.34,.45,1.4-.31,2.91-1.31,4-2.31,2.52-6.46,3.68-9.79,2.87l-.04-1.02c.21,4.01-.17,7.05-.17,7.05h-24.66s-6.59-26.79,10.63-26.15Z"/>
          <g>
            <rect class="cls-12" x="361.53" y="270.58" width="58.36" height="10.34" transform="translate(781.41 551.5) rotate(180)"/>
            <polygon class="cls-12" points="415.53 278.87 408.43 309.78 373.65 309.78 365.88 278.87 415.53 278.87"/>
            <path class="cls-8" d="M361.56,280.93c0,.11,13.16,.21,29.4,.21s29.4-.09,29.4-.21-13.16-.21-29.4-.21-29.4,.09-29.4,.21Z"/>
          </g>
          <path class="cls-8" d="M395.85,245.44s.11-.08,.34-.19c.22-.13,.57-.27,1.02-.44,.91-.32,2.32-.6,4.06-.47,1.73,.14,3.78,.73,5.72,2,1.93,1.26,3.65,3.22,4.91,5.55,1.26,2.34,1.98,4.79,2.35,7.05,.36,2.27,.39,4.33,.4,6.05,0,1.73-.06,3.12-.1,4.08-.02,.45-.03,.82-.05,1.11-.01,.25-.03,.39-.04,.39-.01,0-.02-.13-.03-.39,0-.29,0-.66-.01-1.11,0-1.01,0-2.39,0-4.08-.03-1.72-.09-3.77-.46-6.01-.38-2.23-1.1-4.64-2.34-6.94-1.24-2.29-2.91-4.21-4.79-5.46-1.88-1.25-3.88-1.86-5.57-2.02-1.7-.16-3.09,.08-4,.36-.92,.28-1.38,.55-1.4,.51Z"/>
          <path class="cls-8" d="M401.07,232.35s-.02-.1-.04-.29c0-.19-.05-.48-.03-.84,0-.73,.08-1.8,.36-3.09,.29-1.28,.8-2.79,1.71-4.29,.44-.75,.99-1.5,1.65-2.18,.65-.69,1.42-1.33,2.31-1.83,.88-.5,1.82-.85,2.75-1.06,.94-.19,1.86-.24,2.74-.2,1.75,.1,3.28,.55,4.49,1.07,1.21,.52,2.13,1.07,2.73,1.49,.31,.2,.52,.39,.68,.5,.15,.12,.23,.19,.22,.2-.02,.02-.35-.21-.97-.59-.62-.39-1.54-.9-2.75-1.38-1.2-.48-2.71-.9-4.42-.98-.85-.03-1.75,.03-2.66,.22-.9,.2-1.81,.54-2.66,1.03-.86,.48-1.6,1.1-2.24,1.77-.64,.67-1.19,1.39-1.63,2.12-.9,1.45-1.43,2.93-1.75,4.18-.31,1.26-.43,2.31-.46,3.04-.03,.73-.02,1.13-.05,1.13Z"/>
          <path class="cls-8" d="M424,206.25s-.12-.76-.21-1.98c-.05-.61-.11-1.34-.24-2.13-.13-.8-.33-1.65-.7-2.5-.71-1.72-1.58-3.18-2.25-4.2-.67-1.02-1.19-1.58-1.15-1.62,.02-.02,.16,.11,.41,.36,.24,.25,.57,.63,.93,1.13,.73,1,1.64,2.45,2.37,4.2,.38,.87,.58,1.77,.69,2.58,.12,.81,.16,1.55,.18,2.16,.03,1.23,.02,1.99-.02,1.99Z"/>
          <path class="cls-8" d="M420.81,261.71c.06-.07,.81,.49,1.68,1.24,.87,.76,1.53,1.42,1.47,1.49-.06,.07-.81-.49-1.68-1.24-.87-.76-1.53-1.42-1.47-1.49Z"/>
          <path class="cls-8" d="M422.88,259.65c0-.09,.93-.26,2.09-.37,1.16-.11,2.11-.13,2.12-.04,0,.09-.93,.26-2.09,.37-1.16,.11-2.11,.13-2.12,.04Z"/>
          <path class="cls-8" d="M421.31,256.01c-.07-.07,.53-.73,1.17-1.62,.65-.88,1.1-1.66,1.18-1.61,.08,.04-.25,.9-.92,1.81-.66,.91-1.38,1.49-1.44,1.43Z"/>
          <path class="cls-8" d="M418.55,254.34c.09,.02-.08,1.09-.38,2.39-.3,1.3-.61,2.34-.7,2.32-.09-.02,.08-1.09,.38-2.39,.3-1.3,.61-2.34,.7-2.32Z"/>
          <path class="cls-8" d="M416.71,262.68c-.06-.07,.33-.52,.87-1,.54-.49,1.03-.83,1.09-.76,.06,.07-.33,.52-.87,1-.54,.49-1.03,.83-1.09,.76Z"/>
          <path class="cls-8" d="M408.13,261.06c-.07-.06,.41-.66,1.06-1.34,.65-.68,1.23-1.18,1.29-1.11,.07,.06-.41,.66-1.06,1.34-.65,.68-1.23,1.18-1.29,1.11Z"/>
          <path class="cls-8" d="M406.27,253.14c-.08-.05,.28-.77,.79-1.61,.51-.84,.99-1.48,1.07-1.43,.08,.05-.28,.77-.79,1.61-.51,.84-.99,1.48-1.07,1.43Z"/>
          <path class="cls-8" d="M400.81,246.7c.09,0,.18,.92,.19,2.06,.01,1.14-.05,2.06-.14,2.06-.09,0-.18-.92-.19-2.06-.01-1.14,.05-2.06,.14-2.06Z"/>
          <path class="cls-8" d="M389.35,248.88c.08-.05,.75,.84,1.63,1.9,.87,1.06,1.62,1.89,1.56,1.96-.06,.06-.92-.67-1.81-1.75-.89-1.08-1.45-2.06-1.38-2.11Z"/>
          <path class="cls-8" d="M387.88,260.14c.02-.09,.93,.01,2.04,.23,1.11,.21,2,.46,1.98,.55-.02,.09-.93-.01-2.04-.23-1.11-.21-2-.46-1.98-.55Z"/>
          <path class="cls-8" d="M399.76,264.06c-.08-.03,.19-1.07,.79-2.25,.6-1.18,1.28-2.02,1.35-1.97,.08,.05-.47,.96-1.06,2.12-.59,1.16-.99,2.13-1.08,2.1Z"/>
          <path class="cls-8" d="M395.8,258.66c-.09,0-.18-.74-.2-1.66-.02-.92,.04-1.67,.13-1.67,.09,0,.18,.74,.2,1.66,.02,.92-.04,1.67-.13,1.67Z"/>
          <path class="cls-8" d="M408.59,268.18c-.08-.03,.15-.85,.7-1.74,.54-.89,1.17-1.47,1.24-1.41,.07,.06-.43,.72-.96,1.58-.53,.86-.89,1.6-.98,1.57Z"/>
          <path class="cls-8" d="M395.02,268.96c-.08,.04-.48-.68-.89-1.6-.41-.92-.67-1.7-.59-1.73,.08-.04,.48,.68,.89,1.6,.41,.92,.67,1.7,.59,1.73Z"/>
          <path class="cls-8" d="M416.12,243.87c0-.09,1.02-.13,2.26-.09,1.25,.04,2.25,.15,2.25,.24,0,.09-1.02,.13-2.26,.09-1.25-.04-2.25-.15-2.25-.24Z"/>
          <path class="cls-8" d="M421.04,235.44c-.05-.07,.92-.85,2.17-1.74,1.25-.89,2.31-1.54,2.36-1.47,.05,.07-.92,.85-2.17,1.74-1.25,.89-2.31,1.54-2.36,1.47Z"/>
          <path class="cls-8" d="M420.53,224.63c-.04-.09,.8-.53,1.77-1.17,.97-.64,1.7-1.24,1.77-1.17,.06,.06-.59,.79-1.59,1.45-.99,.66-1.92,.98-1.95,.9Z"/>
          <path class="cls-8" d="M415.01,220.81c-.09-.02,.13-1.2,.48-2.64,.35-1.44,.71-2.58,.8-2.56,.09,.02-.13,1.2-.48,2.64-.35,1.43-.71,2.58-.8,2.56Z"/>
          <path class="cls-8" d="M405.8,218.08c.08-.04,.56,.67,1.07,1.59,.51,.92,.86,1.7,.79,1.75-.08,.04-.56-.67-1.07-1.59-.51-.92-.86-1.7-.79-1.75Z"/>
          <path class="cls-8" d="M397.86,236.33c.06-.07,1.11,.73,2.49,1.58,1.38,.86,2.57,1.44,2.53,1.52-.03,.08-1.3-.37-2.7-1.24-1.41-.87-2.38-1.8-2.32-1.86Z"/>
          <path class="cls-8" d="M410.73,240.43c-.05-.08,.66-.6,1.58-1.17,.92-.57,1.71-.97,1.75-.89,.05,.08-.66,.6-1.58,1.17-.92,.57-1.71,.97-1.75,.89Z"/>
          <path class="cls-8" d="M412.89,231.7c-.07-.07,.77-.89,1.54-2.08,.78-1.19,1.2-2.28,1.29-2.24,.08,.02-.21,1.19-1.02,2.42-.8,1.23-1.76,1.97-1.81,1.9Z"/>
          <path class="cls-8" d="M408.66,229.73c-.09,0-.12-.95-.07-2.12,.05-1.16,.17-2.1,.26-2.1,.09,0,.12,.95,.07,2.12-.05,1.16-.17,2.1-.26,2.1Z"/>
          <path class="cls-8" d="M406.33,238.36c-.09,.01-.27-.95-.41-2.14-.14-1.19-.18-2.17-.09-2.18,.09-.01,.27,.95,.41,2.14,.14,1.19,.18,2.16,.09,2.18Z"/>
          <path class="cls-8" d="M399.8,212.37c.09-.01,.31,1.09,.69,2.41,.38,1.33,.78,2.38,.69,2.41-.08,.04-.62-.97-1-2.32-.39-1.35-.46-2.49-.37-2.5Z"/>
          <path class="cls-8" d="M395.2,227.52c-.04-.08,.85-.63,1.89-1.39,1.04-.75,1.83-1.44,1.9-1.37,.06,.06-.64,.86-1.71,1.63-1.06,.77-2.04,1.2-2.08,1.12Z"/>
          <path class="cls-8" d="M388.96,222.87c0-.09,1.04-.22,2.3-.47,1.27-.24,2.28-.5,2.31-.42,.03,.08-.96,.49-2.25,.74-1.29,.25-2.36,.23-2.36,.14Z"/>
          <path class="cls-8" d="M395.04,217.67c.05-.08,.64,.21,1.31,.65,.68,.43,1.19,.85,1.14,.92-.05,.08-.64-.21-1.31-.65-.68-.43-1.19-.85-1.14-.92Z"/>
          <path class="cls-8" d="M392,212.06c.05-.07,.79,.42,1.49,1.24,.71,.81,1.1,1.61,1.02,1.65-.08,.05-.58-.65-1.27-1.43-.69-.79-1.31-1.38-1.25-1.45Z"/>
          <path class="cls-8" d="M387.87,217.41c.04-.09,.97,.22,2.13,.53,1.16,.31,2.12,.52,2.1,.61-.01,.09-1.01,.03-2.19-.29-1.18-.32-2.07-.77-2.04-.85Z"/>
          <path class="cls-8" d="M416.51,210.21c-.07-.06,.83-1.28,1.86-2.84,1.04-1.56,1.81-2.87,1.9-2.82,.08,.04-.57,1.43-1.62,3-1.04,1.58-2.07,2.72-2.14,2.66Z"/>
          <path class="cls-8" d="M414.67,203.66c-.09-.01-.02-1.11,.16-2.45,.18-1.34,.39-2.41,.48-2.4,.09,.01,.02,1.11-.16,2.45-.18,1.34-.39,2.41-.48,2.4Z"/>
          <path class="cls-8" d="M408.31,204.68c.1-.02,.36,1.24,.99,2.68,.62,1.45,1.35,2.5,1.27,2.56-.06,.05-.94-.94-1.58-2.43-.65-1.48-.77-2.81-.69-2.81Z"/>
          <path class="cls-8" d="M400.83,206.27c.08-.06,1.01,1.04,2.29,2.24,1.28,1.21,2.43,2.07,2.38,2.15-.05,.07-1.3-.68-2.6-1.91-1.31-1.23-2.14-2.43-2.07-2.48Z"/>
          <path class="cls-8" d="M403.72,192.69c.09-.02,.38,1.36,.9,3.02,.51,1.66,1.05,2.96,.96,3-.08,.04-.76-1.22-1.27-2.9-.52-1.68-.67-3.1-.58-3.11Z"/>
          <path class="cls-8" d="M412.34,188.22c.09,0,.23,1.08,.31,2.42,.08,1.34,.07,2.43-.02,2.44-.09,0-.23-1.08-.31-2.42-.08-1.34-.07-2.43,.02-2.44Z"/>
          <path class="cls-8" d="M430.12,199.7c.02-.09,.84,.05,1.85,.13,1.01,.09,1.84,.07,1.85,.17,.01,.09-.83,.25-1.88,.16-1.05-.08-1.85-.38-1.83-.46Z"/>
          <path class="cls-8" d="M429.59,195.22c-.04-.08,1.1-.77,2.55-1.54,1.45-.77,2.66-1.33,2.7-1.25,.04,.08-1.1,.77-2.55,1.54-1.45,.77-2.66,1.33-2.7,1.25Z"/>
          <path class="cls-8" d="M424.78,195.38c-.09-.03,.16-1.05,.54-2.28,.39-1.23,.77-2.21,.86-2.18,.09,.03-.16,1.05-.54,2.28-.39,1.23-.77,2.21-.86,2.18Z"/>
          <g class="cls-9">
            <path d="M411.32,250.9c-.05-2.34-1.34-4.73-3.29-6.04s-5.44-1.43-6.82-.46c2.04-.02,4.34,.85,5.98,2.06,1.64,1.21,3.02,2.72,4.12,4.43"/>
          </g>
          <g class="cls-9">
            <path d="M418.93,220.81c-.85-1.84-2.7-3.29-4.7-3.66-1.99-.36-4.82,.74-5.57,1.99,1.61-.72,3.74-.82,5.46-.43,1.72,.4,3.34,1.11,4.8,2.09"/>
          </g>
          <g class="cls-9">
            <path d="M423.96,202.91c.79-1.36,.91-3.09,.32-4.55-.59-1.46-1.73-2.18-3.25-2.61,1.55,2.24,2.76,4.52,2.88,7.24"/>
          </g>
          <path class="cls-8" d="M392.83,246.86s-.26,.24-.66,.72c-.4,.48-.96,1.21-1.49,2.19-.99,1.99-1.89,5.03-2.14,8.44-.27,3.42,.1,6.54,.43,8.76,.17,1.11,.34,2.01,.46,2.63,.12,.62,.17,.97,.15,.97-.02,0-.12-.33-.29-.94-.16-.61-.36-1.51-.57-2.62-.4-2.22-.81-5.36-.54-8.83,.26-3.47,1.2-6.52,2.28-8.54,.58-.99,1.17-1.7,1.61-2.16,.45-.46,.76-.64,.77-.62Z"/>
        </g>
        <path class="cls-8" d="M419.89,270.58s-.06,.01-.18,.02c-.14,0-.31,0-.52,.02-.48,0-1.15,.02-2,.03-1.76,.01-4.27,.03-7.36,.05-6.24,.01-14.82,.03-24.29,.05-9.34-.02-17.81-.03-24-.05l.12-.12c-.01,3.18-.02,5.76-.03,7.58-.01,.88-.02,1.56-.02,2.06,0,.22-.01,.4-.01,.54,0,.12-.01,.18-.02,.18s-.01-.06-.02-.18c0-.14-.01-.32-.02-.54,0-.5-.02-1.18-.04-2.06-.02-1.81-.04-4.4-.08-7.58v-.12s.12,0,.12,0c6.19-.01,14.66-.03,24-.05,9.48,.02,18.05,.04,24.29,.05,3.09,.02,5.6,.04,7.36,.05,.85,.01,1.52,.02,2,.03,.21,0,.38,.01,.52,.02,.12,0,.18,.01,.18,.02Z"/>
      </g>
      <g>
        <g>
          <polygon class="cls-11" points="424.03 288.9 415.28 309.69 420.91 309.69 424.8 298.48 424.03 288.9"/>
          <g>
            <g>
              <polygon class="cls-11" points="450.9 270.16 454.33 309.88 425.71 309.78 422.53 270.16 450.9 270.16"/>
              <polygon class="cls-3" points="448.1 273.27 451.06 306.06 429.6 306.34 426.7 273.08 448.1 273.27"/>
            </g>
            <polygon class="cls-8" points="443.55 277.81 445.23 300.37 433.78 300.37 431.76 277.81 443.55 277.81"/>
          </g>
        </g>
        <g>
          <rect class="cls-11" x="350.06" y="360.37" width="12.38" height="91.07"/>
          <rect class="cls-11" x="445.96" y="359.62" width="12.38" height="91.91"/>
          <g>
            <g>
              <polygon class="cls-11" points="464.15 361.46 345.43 361.69 345.43 317.73 464.15 317.73 464.15 361.46"/>
              <path class="cls-8" d="M464.15,361.46s-.01-.27-.02-.78c0-.52,0-1.27-.02-2.25,0-1.98-.02-4.9-.04-8.66-.02-7.52-.05-18.44-.08-32.05l.15,.15c-29.33,.02-71.69,.04-118.72,.07l.22-.22v.1c0,15.3,0,30.11,0,43.85l-.21-.21c34.28-.02,63.93-.04,85.02-.06,10.55,0,18.96,.01,24.75,.01,2.89,0,5.11,.01,6.63,.01,.75,0,1.32,0,1.72,.01,.39,0,.59,.01,.59,.01,0,0-.19,0-.57,.01-.39,0-.96,0-1.69,.02-1.51,0-3.72,.02-6.59,.04-5.77,.02-14.17,.06-24.7,.11-21.13,.06-50.83,.15-85.17,.26h-.21s0-.21,0-.21c0-13.74,0-28.55,0-43.85v-.33h.22c47.03,.03,89.39,.05,118.72,.07h.15s0,.15,0,.15c-.03,13.65-.06,24.59-.08,32.14-.02,3.75-.03,6.65-.04,8.62,0,.97-.01,1.71-.02,2.22,0,.5-.02,.75-.02,.75Z"/>
            </g>
            <path class="cls-8" d="M454.39,352.78s-.01-.17-.02-.5c0-.34,0-.83-.02-1.46,0-1.29-.02-3.18-.04-5.62-.02-4.9-.05-12.01-.09-20.93l.16,.14c-24.01,.02-59.93,.04-99.97,.07h0l.24-.21c0,9.91,0,19.52,0,28.52l-.23-.2c28.76,.04,53.72,.07,71.51,.09,8.9,.02,16,.04,20.9,.06,2.44,.01,4.32,.02,5.61,.03,.63,0,1.12,0,1.46,.01,.33,0,.5,.01,.5,.01,0,0-.16,0-.48,.01-.34,0-.81,0-1.43,.01-1.28,0-3.15,.01-5.56,.03-4.88,.01-11.97,.03-20.84,.06-17.83,.02-42.85,.06-71.67,.09h-.23s0-.2,0-.2c0-9,0-18.62,0-28.52v-.21s.24,0,.24,0h0c40.05,.03,75.96,.05,99.97,.07h.16s0,.14,0,.14c-.04,8.96-.07,16.1-.09,21.02-.02,2.43-.03,4.31-.04,5.59,0,.62-.01,1.1-.02,1.44,0,.32-.02,.48-.02,.48Z"/>
            <path class="cls-8" d="M357.98,349.04c.09,.08-.62,.93-1.57,1.9-.96,.97-1.8,1.7-1.89,1.62-.09-.08,.62-.93,1.57-1.9,.96-.97,1.8-1.7,1.89-1.62Z"/>
            <path class="cls-8" d="M357.98,328c-.09,.08-.97-.7-1.96-1.73-.99-1.03-1.72-1.93-1.64-2.01,.09-.08,.96,.7,1.96,1.73,.99,1.03,1.72,1.93,1.64,2.01Z"/>
            <path class="cls-8" d="M454.57,324.34c.1,.08-.85,1-2.18,1.98-1.32,.98-2.4,1.74-2.49,1.67-.1-.08,.85-1,2.18-1.98,1.32-.98,2.4-1.74,2.49-1.67Z"/>
            <path class="cls-8" d="M454.39,352.78c-.09,.08-1.17-.69-2.41-1.72-1.24-1.03-2.17-1.94-2.08-2.02s1.17,.69,2.41,1.72c1.24,1.03,2.17,1.94,2.08,2.02Z"/>
            <path class="cls-8" d="M449.9,349.04s0-.13-.01-.37c0-.25,0-.61-.02-1.07,0-.95-.02-2.33-.04-4.13-.02-3.6-.05-8.85-.08-15.48l.15,.13c-20.88,.02-54.14,.05-91.52,.08h0l.24-.21c0,7.23,0,14.29,0,21.04l-.23-.2c26.13,.04,48.98,.07,65.31,.09,8.17,.02,14.71,.04,19.22,.06,2.24,.01,3.98,.02,5.18,.03,.58,0,1.03,0,1.35,.01,.3,0,.47,.01,.47,.01,0,0-.14,0-.44,.01-.31,0-.75,0-1.32,.01-1.19,0-2.91,.01-5.13,.03-4.5,.01-11.02,.03-19.17,.06-16.37,.02-39.28,.05-65.47,.09h-.23s0-.2,0-.2c0-6.76,0-13.81,0-21.04v-.21h.24c37.39,.03,70.64,.06,91.52,.08h.15s0,.13,0,.13c-.03,6.66-.06,11.93-.08,15.55-.02,1.78-.03,3.16-.04,4.1,0,.45-.01,.8-.02,1.05,0,.23-.01,.35-.01,.35Z"/>
            <g>
              <path class="cls-6" d="M412.57,336.57c-.68-.43-1.45-.72-2.23-.96-.71-.22-1.46-.32-2.2-.32h-6.11c-1.8,0-3.57,.61-4.87,1.78-.32,.29-.58,.58-.73,.83-.52,.89-.55,2.13,.24,2.83,.79,.7,2.39,.36,2.52-.65-.04,1.34,1.4,2.46,2.81,2.37,1.41-.09,2.61-1.19,3.01-2.47-.01,1.13,1.01,2.19,2.2,2.28,1.2,.09,2.38-.81,2.54-1.94,.75,.93,1.87,1.8,3.16,1.4,.73-.23,1.28-.84,1.46-1.55,.38-1.47-.57-2.82-1.81-3.6Z"/>
              <path class="cls-8" d="M403.11,335.26c.06,.11-1.41,.71-2.51,2.18-1.13,1.44-1.28,2.95-1.41,2.93-.05,0-.09-.38,.03-.99,.12-.6,.44-1.42,1.03-2.18,.59-.76,1.31-1.3,1.88-1.6,.57-.3,.96-.38,.98-.33Z"/>
              <path class="cls-8" d="M405.45,335.5c.12,.02,.1,1.05-.04,2.3-.14,1.25-.35,2.26-.47,2.26-.12,0-.1-1.04,.04-2.3,.14-1.26,.35-2.27,.47-2.26Z"/>
              <path class="cls-8" d="M408.4,335.44s.35,.08,.71,.46c.36,.37,.72,1.02,.86,1.78,.14,.76,.08,1.45,.01,1.93-.07,.48-.16,.78-.21,.77-.06,0-.08-.31-.09-.79-.01-.48,0-1.14-.13-1.84-.13-.7-.4-1.29-.67-1.67-.27-.39-.51-.59-.47-.64Z"/>
            </g>
          </g>
          <g>
            <rect class="cls-11" x="336.91" y="309.78" width="134.35" height="10.58"/>
            <path class="cls-8" d="M471.26,320.36s-.01-.24-.02-.7c0-.47-.01-1.14-.02-2.03-.01-1.79-.03-4.42-.05-7.85l.08,.08c-21.22,.02-73.38,.08-134.34,.14h0l.22-.22c0,3.62,0,7.22,0,10.58l-.22-.22c37.57,.04,71.13,.07,95.3,.09,12.1,.03,21.84,.05,28.58,.07,3.36,.01,5.97,.02,7.75,.03,.88,0,1.55,.01,2.02,.02,.46,0,.7,.02,.7,.02,0,0-.22,.01-.67,.02-.46,0-1.12,0-1.99,.02-1.77,0-4.36,.02-7.7,.03-6.72,.02-16.45,.04-28.53,.07-24.22,.02-57.83,.06-95.46,.09h-.22v-.22c0-3.36,0-6.95,0-10.58v-.22s.22,0,.22,0h0c60.96,.06,113.12,.12,134.34,.14h.08s0,.08,0,.08c-.02,3.45-.04,6.1-.05,7.9,0,.88-.01,1.55-.02,2.01,0,.45-.02,.67-.02,.67Z"/>
          </g>
        </g>
      </g>
    </g>
  </g>
  <g id="Speech_Bubbles" data-name="Speech Bubbles">
    <g>
      <g>
        <g>
          <path class="cls-1" d="M180.23,55.62c12.11,14.02,10.56,35.2-3.45,47.31s-35.2,10.56-47.31-3.45c-12.11-14.02-10.56-35.2,3.45-47.31,14.02-12.11,35.2-10.56,47.31,3.45Z"/>
          <path class="cls-8" d="M180.23,55.62s-.14-.12-.4-.37c-.27-.28-.65-.65-1.12-1.13-.25-.25-.52-.53-.82-.84-.32-.29-.69-.58-1.08-.92-.78-.66-1.67-1.44-2.79-2.15-2.14-1.57-5.06-3.08-8.62-4.28-3.57-1.18-7.87-1.91-12.6-1.6-4.7,.32-9.87,1.61-14.66,4.47-4.74,2.86-9.28,7.01-12.26,12.52-.82,1.34-1.39,2.81-2.03,4.28-.28,.75-.5,1.52-.76,2.29-.28,.76-.45,1.56-.61,2.36-.42,1.59-.55,3.24-.76,4.89-.04,1.67-.13,3.35,.06,5.04,.3,3.37,.99,6.81,2.39,10.03,1.36,3.23,3.23,6.29,5.56,9.05,2.39,2.7,5.15,5,8.15,6.82,2.98,1.86,6.29,3.04,9.58,3.82,1.65,.43,3.33,.58,4.98,.79,1.67,.04,3.32,.14,4.95-.04,.82-.05,1.63-.1,2.42-.26,.8-.14,1.59-.25,2.37-.42,1.54-.42,3.09-.78,4.53-1.39,5.89-2.15,10.66-6.04,14.17-10.31,3.52-4.32,5.54-9.25,6.55-13.86,.99-4.63,.9-9,.25-12.7-.67-3.7-1.74-6.81-2.98-9.15-.54-1.22-1.19-2.21-1.72-3.08-.27-.43-.51-.85-.75-1.2-.26-.34-.5-.65-.71-.93-.41-.54-.72-.97-.95-1.28-.21-.29-.32-.44-.31-.45,0,0,.13,.13,.36,.41,.25,.3,.58,.71,1.01,1.24,.22,.28,.47,.58,.74,.92,.25,.35,.5,.76,.78,1.19,.56,.86,1.23,1.85,1.79,3.07,1.28,2.35,2.41,5.47,3.12,9.2,.69,3.73,.82,8.15-.16,12.85-.99,4.67-3.02,9.69-6.58,14.1-3.55,4.36-8.39,8.33-14.38,10.53-1.47,.63-3.04,1-4.61,1.43-.79,.18-1.61,.28-2.42,.43-.81,.17-1.63,.22-2.47,.27-1.66,.19-3.34,.08-5.04,.05-1.69-.21-3.4-.36-5.08-.79-3.36-.8-6.72-2-9.77-3.89-3.06-1.85-5.87-4.19-8.31-6.94-2.36-2.81-4.27-5.93-5.66-9.23-1.43-3.29-2.13-6.79-2.43-10.23-.19-1.72-.09-3.44-.05-5.14,.21-1.68,.35-3.36,.78-4.98,.17-.81,.35-1.62,.63-2.4,.26-.78,.49-1.57,.78-2.33,.65-1.49,1.25-2.99,2.08-4.35,3.05-5.61,7.68-9.81,12.51-12.69,4.88-2.88,10.13-4.16,14.9-4.46,4.79-.29,9.15,.49,12.74,1.71,3.59,1.24,6.52,2.81,8.65,4.42,1.12,.73,2,1.54,2.78,2.21,.38,.34,.75,.64,1.06,.94,.29,.32,.56,.6,.8,.86,.46,.5,.82,.89,1.08,1.18,.24,.27,.36,.41,.35,.41Z"/>
        </g>
        <g>
          <path class="cls-12" d="M165.73,68.18h-5.46s0-4.46-4.77-4.54c-2.48-.04-3.76,1.54-4.28,2.74-.61,1.4-.42,3,.39,4.3,.93,1.49,2.96,2.84,6.64,2.21v11.98h-5.4v-7.02s-7.58-1.9-7.58-10.02,7.17-9.57,10.23-9.57c2.35,0,10.34,.55,10.23,9.92Z"/>
          <rect class="cls-12" x="153" y="87.33" width="5.33" height="4.98"/>
        </g>
      </g>
      <g>
        <path class="cls-1" d="M200.72,93.26c0,2.25-1.82,4.07-4.07,4.07s-4.07-1.82-4.07-4.07,1.82-4.07,4.07-4.07,4.07,1.82,4.07,4.07Z"/>
        <path class="cls-8" d="M200.72,93.26c-.06,0-.06-.36-.25-.96-.18-.59-.6-1.45-1.5-2.09-.86-.65-2.27-1-3.61-.49-1.33,.47-2.48,1.89-2.47,3.55-.01,1.66,1.13,3.08,2.47,3.55,1.35,.51,2.75,.16,3.61-.49,.89-.65,1.32-1.5,1.5-2.09,.18-.6,.19-.97,.25-.96,.03,0,.11,.36,0,1.02-.12,.65-.5,1.62-1.46,2.39-.93,.77-2.52,1.24-4.09,.69-1.56-.51-2.92-2.16-2.91-4.1-.02-1.94,1.35-3.6,2.91-4.1,1.57-.56,3.16-.09,4.09,.69,.96,.77,1.35,1.75,1.47,2.39,.12,.66,.04,1.03,0,1.02Z"/>
      </g>
    </g>
    <g>
      <g>
        <path class="cls-1" d="M291.27,90.43l11.05-.65c4.66,4.33,10.53,7.48,17.23,8.82,19.26,3.85,37.99-8.63,41.84-27.89,3.85-19.26-8.63-37.99-27.89-41.84-19.26-3.85-37.99,8.63-41.84,27.89-1.61,8.04-.36,15.99,3.03,22.8v-.02s-3.42,10.89-3.42,10.89Z"/>
        <path class="cls-8" d="M291.27,90.43s.06-.23,.2-.69c.14-.48,.35-1.17,.63-2.08,.57-1.86,1.4-4.59,2.49-8.15l.05-.15,.11,.12h.01s-.15,.12-.15,.12c-2.04-4.08-3.99-9.94-3.76-17.08,.05-1.77,.25-3.62,.61-5.5,.45-1.86,.84-3.81,1.62-5.7,1.41-3.83,3.57-7.67,6.58-11.11,3-3.43,6.83-6.45,11.31-8.62,4.47-2.17,9.59-3.49,14.92-3.6,5.33-.14,10.85,1.05,15.93,3.44,5.07,2.4,9.75,6.04,13.23,10.76,.43,.59,.88,1.18,1.3,1.78,.38,.63,.75,1.26,1.13,1.88l.56,.94,.47,.98c.31,.66,.62,1.31,.93,1.96,.29,.66,.5,1.35,.76,2.02,.23,.68,.53,1.34,.67,2.04,.34,1.39,.77,2.75,.92,4.16,.91,5.58,.46,11.23-1.11,16.35-1.6,5.12-4.32,9.69-7.68,13.38-3.36,3.7-7.36,6.53-11.51,8.45-4.16,1.92-8.47,2.92-12.55,3.19-2.05,.19-4.03,.04-5.94-.07-1.89-.3-3.74-.5-5.45-.98-6.91-1.81-11.98-5.32-15.29-8.43l.07,.02c-3.6,.19-6.37,.33-8.25,.43-.92,.04-1.62,.08-2.1,.1-.47,.02-.7,.03-.7,.03,0,0,.25-.02,.73-.06,.49-.03,1.2-.08,2.12-.14,1.87-.12,4.62-.3,8.18-.53h.04s.03,.02,.03,.02c3.32,3.07,8.37,6.53,15.24,8.29,1.7,.47,3.53,.67,5.41,.95,1.9,.11,3.86,.24,5.89,.05,4.04-.28,8.31-1.29,12.42-3.2,4.11-1.9,8.06-4.71,11.38-8.38,3.32-3.66,5.99-8.18,7.58-13.24,1.54-5.07,1.98-10.65,1.08-16.16-.15-1.39-.58-2.74-.91-4.11-.14-.69-.44-1.34-.67-2.02-.25-.66-.47-1.35-.75-2-.31-.64-.62-1.29-.92-1.94l-.47-.97-.56-.93c-.37-.62-.74-1.24-1.11-1.86-.42-.59-.86-1.17-1.29-1.76-3.44-4.66-8.05-8.26-13.07-10.64-5.02-2.37-10.47-3.56-15.74-3.42-5.27,.1-10.33,1.4-14.76,3.54-4.43,2.14-8.23,5.12-11.21,8.51-2.98,3.39-5.14,7.19-6.55,10.98-.77,1.88-1.17,3.81-1.62,5.65-.36,1.86-.57,3.69-.63,5.45-.26,7.08,1.64,12.91,3.64,16.99l.29,.6-.44-.5v-.02s.14-.03,.14-.03c-1.12,3.52-1.99,6.22-2.58,8.06-.29,.91-.52,1.61-.67,2.09-.15,.47-.24,.72-.24,.72Z"/>
      </g>
      <g>
        <path class="cls-12" d="M338.49,55.03h-6.86s0-5.47-5.98-5.56c-3.11-.05-4.72,1.88-5.37,3.36-.76,1.72-.53,3.68,.49,5.27,1.16,1.82,3.71,3.48,8.33,2.7v14.68h-6.78v-8.6s-9.51-2.33-9.51-12.28c0-9.52,8.99-11.73,12.84-11.73,2.94,0,12.97,.68,12.84,12.16Z"/>
        <rect class="cls-12" x="322.24" y="78.5" width="6.88" height="6.1" transform="translate(651.35 163.11) rotate(180)"/>
      </g>
    </g>
  </g>
  <g id="Character">
    <g>
      <g>
        <g>
          <path class="cls-8" d="M234.61,416.03l.7,22.78s-22.92,8.36-23.2,12.59l44.22,.23,.37-35.54-22.09-.05Z"/>
          <path class="cls-6" d="M249,436.97c.85,.24,1.44,1.2,1.24,2.07-.2,.86-1.18,1.47-2.04,1.25-.86-.22-1.6-1.36-1.3-2.2,.3-.84,1.48-1.48,2.26-1.06"/>
          <path class="cls-11" d="M256.33,451.63l-.1-3.58-42.36,1.12s-1.97,.85-1.76,2.23l44.22,.23Z"/>
          <path class="cls-1" d="M234.6,438.58c0,.22,1.09,.32,2.14,1.02,1.08,.67,1.62,1.61,1.82,1.53,.2-.04-.12-1.33-1.41-2.16-1.29-.84-2.6-.59-2.55-.39Z"/>
          <path class="cls-1" d="M229.95,440.48c-.05,.21,.88,.58,1.61,1.5,.76,.9,.94,1.88,1.15,1.88,.2,.04,.36-1.23-.57-2.35-.92-1.13-2.19-1.23-2.19-1.02Z"/>
          <path class="cls-1" d="M227.29,446.02c.2,.05,.5-1.03-.05-2.22-.54-1.19-1.56-1.66-1.65-1.48-.12,.18,.53,.81,.96,1.8,.46,.97,.52,1.88,.73,1.9Z"/>
          <path class="cls-1" d="M235.01,433.37c.09,.2,1.08-.1,2.3,0,1.22,.06,2.17,.48,2.28,.29,.13-.16-.8-.96-2.24-1.04-1.44-.1-2.45,.59-2.35,.76Z"/>
        </g>
        <g>
          <path class="cls-8" d="M286.56,420.93l2.39,27.47-4.37,22.28c-.32,1.61,.8,3.14,2.42,3.35h0c.91,.11,1.81-.21,2.43-.89,3.94-4.3,18.36-20.18,18.07-22.18-.33-2.32-.6-29.15-.6-29.15l-20.34-.88Z"/>
          <path class="cls-11" d="M287,474.03l20.38-24.92,.07,1.17c.06,1.01-.23,2.01-.83,2.82-1.62,2.17-6.21,8.05-17.12,20.05-.63,.7-1.58,1.03-2.51,.89h0Z"/>
          <g class="cls-4">
            <path class="cls-1" d="M301.17,440.59c-.66,.52-.82,1.58-.32,2.26,.49,.68,1.57,.85,2.24,.34,.67-.51,.9-1.77,.33-2.39-.57-.62-1.84-.75-2.36-.1"/>
          </g>
          <path class="cls-1" d="M292.52,461.6c-.15,.09-.86-1.32-2.55-1.99-1.67-.72-3.16-.24-3.21-.4-.03-.07,.31-.3,.94-.43,.63-.14,1.57-.1,2.49,.28,.92,.39,1.61,1.03,1.96,1.57,.36,.55,.43,.95,.36,.98Z"/>
          <path class="cls-1" d="M290.8,465.41c-.12,.13-1.06-.71-2.51-1.03-1.44-.35-2.65,0-2.71-.17-.09-.14,1.2-.8,2.85-.42,1.65,.37,2.52,1.53,2.38,1.62Z"/>
          <path class="cls-1" d="M295.87,456.64c-.12,.14-1.56-1.16-3.77-1.85-2.2-.72-4.13-.51-4.14-.69-.05-.14,1.97-.66,4.33,.11,2.37,.75,3.71,2.34,3.59,2.42Z"/>
          <path class="cls-1" d="M295.84,448.23c-.06,.17-1.62-.37-3.61-.31-1.98,.03-3.52,.63-3.59,.46-.08-.13,1.45-1.03,3.58-1.07,2.13-.05,3.7,.78,3.62,.92Z"/>
          <path class="cls-1" d="M295.34,440.15c-.07,.16-1.66-.65-3.75-.43-2.09,.18-3.48,1.3-3.59,1.15-.05-.05,.23-.42,.84-.83,.61-.41,1.57-.81,2.69-.93,1.12-.11,2.15,.1,2.82,.38,.68,.28,1.02,.58,.99,.65Z"/>
          <path class="cls-1" d="M291.54,438.18s-.12-.36-.1-1.04c.02-.67,.15-1.66,.65-2.78,.26-.53,.53-1.21,1.28-1.62,.37-.21,.94-.17,1.29,.17,.35,.33,.48,.78,.51,1.21,.08,1.75-1.31,3.53-3.26,3.91-1.96,.34-3.82-.67-4.7-2.13-.2-.38-.34-.85-.16-1.33,.18-.48,.73-.71,1.13-.66,.83,.07,1.37,.51,1.87,.83,1,.7,1.64,1.47,2.02,2.02,.38,.56,.51,.91,.48,.92-.09,.08-.78-1.31-2.74-2.59-.49-.29-1.06-.66-1.65-.68-.29-.01-.53,.12-.62,.36-.09,.23-.01,.57,.16,.87,.74,1.19,2.44,2.11,4.09,1.8,1.65-.3,2.87-1.87,2.81-3.28-.02-.34-.13-.67-.32-.86-.19-.19-.47-.22-.71-.1-.52,.25-.84,.85-1.11,1.35-1.03,2.1-.81,3.65-.93,3.63Z"/>
        </g>
        <path class="cls-8" d="M211.97,227.13s-3.35,12.98-2.14,28.8c.47,6.12,21.12,175.43,21.12,175.43h27.88l-7.84-159.13,2.28,.5s15.22,67.87,16.46,78.86c1.12,9.88,14.79,87.51,14.79,87.51l26.31-.29-9.79-100.2-9.48-91.07-3.56-26.51-76.04,6.11Z"/>
      </g>
      <g>
        <path class="cls-6" d="M215.2,255.29c25.7,8.86,59.47,13.31,76.79-3.76l-5.61-129.38h-65.45l-5.73,133.14Z"/>
        <path class="cls-8" d="M264.64,189.47c.1,.11-4.43,4.35-10.1,9.47-5.68,5.13-10.36,9.19-10.45,9.09-.1-.11,4.43-4.35,10.11-9.47,5.68-5.12,10.36-9.19,10.45-9.09Z"/>
        <path class="cls-9" d="M240.3,261.69s1.65-108.65-.53-113.95c-2.18-5.3-9.97,112.37-9.29,112.37l9.82,1.58Z"/>
        <path class="cls-12" d="M213.16,149.59l-3.32,54.79-2.4,55.04c7.11,5.43,16.79,8.26,28.34,9.18l4.52-111.2v-42.66l-.8-.54-5.52,4.77-1.26,.13c-.88-1.82-2.28-1.14-2.28-1.14-.44-.74-1.07-.87-1.07-.87-1.33-.2-2.15,.87-2.15,.87l-1.01-1.08c-1.64-.47-2.58,1.56-2.58,1.56-14.43,1.6-16.38,10.08-18.64,15.46l8.18,15.69Z"/>
        <path class="cls-12" d="M217.39,150.67c-.15,.46-1.38,31.31-1.38,31.31,0,0,3.38,3.53,2.15,8.13s-3.47,15.22-9.56,15.69c-8.54,.65-16.53-4.33-16.37-19.68,.15-15.35,12.63-52.22,12.63-52.22l14.69,10.42-2.15,6.35Z"/>
        <path class="cls-12" d="M266.75,112.7s5.1,3.31,6.58,5.72l3.69-.03c.65-.07,1.34-.81,2.17-.78,.49,.02,1.09,.77,1.63,.82,.46,.04,.84-.78,1.32-.72,1.03,.13,1.79,.82,2.88,1.09,4.13,1.02,8.72,2.42,10.88,3.97,5.59,4.01,7.47,11.12,7.47,11.12,0,0-15.1,16.29-14.05,17.06,1.05,.77,.48,41.6,.48,41.6,0,0,5.59,62.24,4.1,64.28-1.49,2.04-16.49,11.14-30.6,10.34,0,0-.46-7.9,.72-26.48,1.76-27.93,1.56-37.98,2.06-48.03,.8-16.22-.14-46.82,.01-51.9,.11-3.67,.31-27.97,.66-28.05Z"/>
        <g class="cls-9">
          <path d="M287.61,182.23c-2.47,4.12-3.5,9.07-2.87,13.83,.62,4.76,2.9,9.28,6.35,12.62v-6.34l-2.97-18.65-.51-1.46Z"/>
        </g>
        <path class="cls-12" d="M303.37,133.88s5.28,39.83,8.03,43.5c2.75,3.68,1.84,8.87,1.13,13.92-.78,5.53-3.54,18.66-14.05,17.76-5.51-.47-8.78-4.46-10.66-10.41-3.26-10.32,.97-22.51,.96-25.31s-3.32-23.69-2.93-24.79c.39-1.1,17.52-14.67,17.52-14.67Z"/>
        <path class="cls-8" d="M240.12,140.87s-.23-.29-.59-.85c-.37-.55-.89-1.37-1.71-2.22-.41-.42-.91-.84-1.52-1.16-.6-.33-1.34-.47-2.12-.56-1.57-.15-3.37,.16-4.97,1.1l-.58,.34,.2-.64c.25-.79,.5-1.62,.74-2.47,1.18-4.22,2.24-8.04,3.05-10.94,.38-1.32,.69-2.43,.95-3.31,.23-.78,.38-1.21,.41-1.2,.03,0-.04,.45-.22,1.25-.17,.8-.44,1.94-.79,3.35-.7,2.82-1.68,6.72-2.9,10.99-.24,.85-.5,1.69-.75,2.49l-.38-.3c3.43-2,7.61-1.24,9.13,.82,.82,.92,1.3,1.78,1.62,2.36,.32,.59,.46,.93,.43,.94Z"/>
        <g class="cls-9">
          <path d="M269.65,136.95c1.61-.73,3.51-.73,5.21-.24l.02,.08c.48,1.32,.81,2.68,1,4.07-2.88-1.69-6.55-2.39-9.5-.84,.98-1.41,1.67-2.35,3.28-3.08Z"/>
        </g>
        <path class="cls-8" d="M266.08,140.24s.14-.32,.52-.83c.38-.5,.99-1.21,1.9-1.93,.46-.36,1-.71,1.65-.99,.65-.28,1.42-.42,2.21-.41,1.59,0,3.39,.58,4.82,1.85l-.42,.22c-.16-1.13-.37-2.32-.58-3.55-.81-4.41-1.53-8.4-2.09-11.43-.24-1.38-.44-2.55-.61-3.47-.13-.82-.19-1.28-.16-1.29,.04,0,.16,.44,.35,1.25,.19,.81,.46,1.98,.77,3.44,.62,2.91,1.44,6.93,2.24,11.41,.21,1.23,.42,2.42,.57,3.57l.09,.69-.51-.47c-1.32-1.19-2.99-1.77-4.48-1.79-1.52-.08-2.75,.57-3.66,1.23-1.82,1.35-2.55,2.56-2.62,2.49Z"/>
        <g class="cls-9">
          <path d="M220.76,190.84c-3.35-.34-6.82,.97-9.12,3.42-2.3,2.45-3.37,6.01-2.82,9.32,.17-.09,1.13-.47,1.13-.47l-.29,4.9c3.79-.52,7.47-2.94,9.54-6.16,2.07-3.22,2.66-7.35,1.56-11.02Z"/>
        </g>
        <g>
          <path class="cls-12" d="M208.6,205.8c3.09-.27,5.99-2,8.07-4.47s3.36-5.62,3.94-8.88c.66-3.66,.39-7.71-1.67-10.71-2.1-3.06-5.13-4.32-8.49-5.53"/>
          <path class="cls-8" d="M210.44,176.2s.56,.12,1.54,.46c.97,.36,2.39,.87,3.96,1.88,1.56,1,3.24,2.63,4.22,4.95,.98,2.3,1.23,5.1,.87,7.92-.37,2.82-1.24,5.44-2.47,7.58-1.22,2.16-2.81,3.79-4.35,4.84-1.54,1.07-3,1.57-4.01,1.79-.51,.11-.91,.16-1.18,.17-.27,.02-.42,.01-.42,0,0-.05,.57-.1,1.55-.37,.98-.27,2.38-.81,3.85-1.89,1.47-1.06,2.99-2.67,4.15-4.78,1.17-2.1,2.01-4.66,2.37-7.41,.35-2.75,.12-5.46-.79-7.67-.91-2.22-2.49-3.81-3.98-4.83-1.5-1.02-2.89-1.59-3.83-2-.95-.4-1.48-.62-1.46-.65Z"/>
        </g>
        <path class="cls-8" d="M212.78,142.62s.28,.66,.67,1.87c.4,1.31,.93,3.03,1.56,5.07v.03s0,.03,0,.03c.03,2.95,.06,6.55,.1,10.45,.04,4.85,.08,9.23,.11,12.54,.01,1.53,.02,2.8,.03,3.8,0,.9-.02,1.39-.05,1.4-.04,0-.09-.49-.15-1.39-.06-.9-.13-2.19-.19-3.8-.13-3.21-.22-7.64-.27-12.54-.03-3.92-.03-7.55,0-10.45v.06c-.55-2.06-1.02-3.79-1.38-5.12-.32-1.23-.48-1.92-.44-1.94Z"/>
        <path class="cls-8" d="M293.51,143.82s-.29,.53-.9,1.44c-.67,.98-1.55,2.25-2.6,3.78l.04-.11c.01,3.15-.11,7.33-.34,11.9-.26,4.96-.49,9.45-.67,12.83-.07,1.57-.13,2.87-.18,3.89-.04,.92-.09,1.43-.12,1.43-.04,0-.06-.51-.08-1.43-.02-.92-.01-2.25,.02-3.9,.06-3.29,.27-7.83,.52-12.85,.23-4.56,.4-8.73,.46-11.87v-.07s.04-.05,.04-.05c1.11-1.49,2.03-2.73,2.75-3.68,.66-.86,1.04-1.33,1.07-1.31Z"/>
        <path class="cls-8" d="M300.64,209.04s-.6,.04-1.69,.02c-1.07-.14-2.68-.31-4.45-1.2-1.76-.88-3.59-2.48-4.93-4.71-1.36-2.22-2.29-4.94-2.89-7.85-.64-2.91-.68-5.8-.36-8.35,.32-2.56,1-4.8,1.75-6.6,.77-1.79,1.6-3.14,2.25-4.01,.3-.45,.59-.76,.77-.98,.19-.22,.29-.32,.3-.31,.11,.07-1.55,1.87-2.98,5.45-.69,1.79-1.33,4-1.62,6.52-.28,2.51-.24,5.33,.4,8.19,.59,2.87,1.49,5.54,2.79,7.7,1.29,2.17,3.01,3.74,4.69,4.63,1.69,.91,3.25,1.13,4.3,1.33,1.07,.08,1.67,.14,1.67,.18Z"/>
        <g class="cls-9">
          <path d="M236.13,136.39c-1.61-.73-3.51-.73-5.21-.24l-.02,.08c-.48,1.32-.81,2.68-1,4.07,2.88-1.69,6.64-1.78,9.59-.22-.74-1.61-1.76-2.97-3.37-3.7Z"/>
        </g>
      </g>
      <g>
        <g>
          <g>
            <path class="cls-5" d="M249.94,55l-1.12,.05c-11.29,.46-20.34,9.53-20.78,20.82-.41,10.51-.73,20.76-.43,26.38,.62,11.62,12.56,12.77,12.56,12.77,.03,0-.02,4.04-.03,7.46,5.41,9.15,18.38,10.09,24.79,1.6l1.43-1.8,1.76-44.53c.54-12.12-6.06-22.54-18.19-22.74Z"/>
            <path class="cls-7" d="M240.17,115.12s7.35,.13,14.96-5.1c0,0-3.28,8.89-14.93,8.33l-.03-3.22Z"/>
            <path class="cls-8" d="M233.4,84.78c0,.88,.75,1.6,1.67,1.61,.92,.01,1.66-.69,1.65-1.57,0-.88-.75-1.6-1.67-1.61-.92-.01-1.66,.69-1.65,1.57Z"/>
            <path class="cls-8" d="M230.73,80.9c.21,.21,1.43-.78,3.22-.84,1.78-.09,3.13,.77,3.32,.54,.09-.1-.13-.48-.72-.88-.58-.39-1.55-.75-2.67-.7-1.11,.05-2.03,.5-2.55,.94-.53,.44-.7,.84-.6,.94Z"/>
            <path class="cls-8" d="M249.87,84.58c0,.88,.75,1.6,1.67,1.61,.92,.01,1.66-.69,1.65-1.57,0-.88-.75-1.6-1.67-1.61-.92-.01-1.66,.69-1.65,1.57Z"/>
            <path class="cls-8" d="M248.27,80.59c.22,.21,1.44-.77,3.22-.84,1.78-.09,3.13,.77,3.32,.54,.09-.1-.13-.48-.72-.88-.58-.39-1.55-.75-2.67-.7-1.11,.05-2.03,.5-2.55,.94-.53,.44-.7,.84-.6,.94Z"/>
            <path class="cls-8" d="M242.42,94.59c0-.1-1.11-.25-2.92-.4-.46-.03-.89-.1-.98-.41-.12-.33,.05-.82,.25-1.37,.38-1.12,.78-2.3,1.21-3.53,1.67-5.03,2.86-9.15,2.66-9.22-.2-.07-1.72,3.95-3.39,8.98-.4,1.24-.78,2.42-1.15,3.55-.15,.53-.42,1.13-.16,1.8,.14,.34,.48,.57,.78,.64,.3,.08,.55,.07,.78,.08,1.82,.02,2.94-.02,2.94-.12Z"/>
            <path class="cls-8" d="M248.72,71.71c.2,.48,1.97,.18,4.08,.35,2.11,.13,3.83,.67,4.09,.23,.12-.21-.2-.66-.9-1.1-.7-.44-1.8-.85-3.06-.94-1.26-.09-2.41,.16-3.16,.5-.76,.34-1.13,.74-1.04,.97Z"/>
            <path class="cls-8" d="M231.36,72.65c.39,.39,1.83-.09,3.58-.18,1.75-.14,3.24,.14,3.57-.29,.14-.21-.11-.61-.77-.97-.65-.36-1.73-.63-2.93-.55-1.2,.08-2.23,.49-2.82,.93-.6,.44-.79,.87-.62,1.06Z"/>
            <path class="cls-5" d="M267.54,86.4c.19-.09,7.89-2.69,7.97,5.27s-8.57,6.67-8.59,6.44c-.02-.23,.62-11.71,.62-11.71Z"/>
            <path class="cls-7" d="M269.96,94.79s.14,.1,.37,.2c.23,.1,.62,.17,1.04,.01,.84-.32,1.53-1.66,1.56-3.09,.01-.72-.15-1.41-.41-1.98-.25-.58-.63-.98-1.05-1.06-.42-.09-.72,.16-.82,.39-.1,.22-.05,.38-.09,.4-.02,.02-.17-.13-.11-.46,.03-.16,.12-.35,.31-.5,.19-.16,.47-.24,.76-.21,.61,.04,1.17,.6,1.46,1.22,.32,.63,.52,1.4,.5,2.21-.04,1.6-.84,3.11-1.99,3.46-.56,.15-1.03-.01-1.27-.2-.25-.19-.29-.37-.26-.39Z"/>
          </g>
          <g>
            <path class="cls-8" d="M211.97,65.39c.12-.47,.46-.86,.87-1.11,.91-.55,1.96-.49,2.97-.52,2.53-.07,5.02-.74,7.26-1.91-.79-.39-1.53-.86-2.16-1.48-1.3-1.27-2.06-3.23-1.49-4.95,.11-.32,.29-.66,.62-.77,.52-.16,.97,.34,1.34,.74,1.2,1.31,2.3,1.87,4.07,1.67,1.1-.12,2.16-.38,3.02-.93,.03-.04,.06-.08,.1-.11,.41-.43,.81-.84,1.2-1.24,0,0,0,0,0,0h0c2.96-3,5.51-5.09,8.15-6.19,3.87-1.61,10.36-2.32,14.43-1.3,4.07,1.02,7.74,4.26,8.35,8.41,2.25-1.95,5.66-1.97,8.44-.89l.07-.03c3.1,1.06,4.88,4.3,5.83,7.44,.05,.17,.1,.35,.15,.52,1.06,1.64,2.49,3.04,4.19,4,.3,.17,.64,.38,.68,.72,.04,.34-.24,.62-.52,.83-.73,.54-1.59,.9-2.48,1.07,.29,.74,.63,1.47,1.05,2.15,.35,.59,.78,1.29,.48,1.9-.23,.48-.83,.68-1.35,.61-.52-.07-.99-.36-1.44-.63,.35,.82,.71,1.64,1.06,2.46-1.11,.21-2.27,.13-3.36-.19-.62,2.95-1.05,8.4-1.79,10.4-2.11,.06-2.63-.16-3.69,.2-1.37,.47-.82,2.91-2.62,2.23-.92-.34-2.36-3.79-2.68-4.72-2.1-6.15-2.85-12.76-2.19-19.22-1.29-1.35-2.85-2.44-4.55-3.21l.14,.12c-3.27-1.09-6.96-2.16-10.03-.6-2.38,1.21-3.76,3.72-5.53,5.72-3.35,3.8-7.17,5.85-12.23,6.12-.42,3.52-.49,9.27-.62,12.55l-2.88-6.53v.03c-.23-.38-.42-.77-.61-1.15l-.06-.12h0c-.29-.64-.57-1.26-.94-1.87-.01,0-.02,.02-.03,.03-1.76,1.59-4.41-.78-3.03-2.71,.27-.38,.6-.72,.98-1.01-.8,.77-2.01,1.15-3.08,.84-1.07-.32-1.91-1.38-1.83-2.49,.05-.76,.59-1.44,1.27-1.75-1.43,.13-2.91-.17-4.17-.87-.83-.46-1.64-1.22-1.37-2.25Z"/>
            <path class="cls-11" d="M257.06,57.07s.49,.3,1.18,1.06c.68,.75,1.45,2.06,1.83,3.85,.19,.89,.32,1.89,.33,2.96,.02,1.07-.06,2.22-.12,3.44-.06,1.21-.14,2.49-.04,3.82,.05,.66,.13,1.34,.29,2.01,.15,.66,.34,1.38,.84,1.95,.4,.46,1.07,.66,1.65,.53,.58-.11,1.1-.43,1.47-.85,.74-.88,.91-2,1.09-2.98l-.24,.03c.41,.87,.83,1.74,1.45,2.43,.61,.69,1.44,1.14,2.28,1.21,.42,.03,.84-.04,1.2-.22,.37-.18,.63-.49,.81-.81,.17-.33,.26-.69,.24-1.04-.02-.35-.16-.67-.38-.9l-.12,.11c.91,1.01,1.87,1.55,2.52,1.85,.33,.15,.6,.24,.78,.29,.18,.05,.28,.07,.28,.07,0,0-.09-.04-.26-.11-.17-.07-.43-.17-.76-.33-.64-.32-1.57-.87-2.44-1.88l-.12,.11c.4,.41,.43,1.14,.1,1.73-.17,.29-.41,.56-.73,.72-.32,.16-.7,.22-1.09,.19-.77-.07-1.55-.49-2.12-1.15-.58-.66-.99-1.5-1.39-2.37l-.17-.37-.07,.4c-.18,.98-.36,2.05-1.04,2.84-.34,.38-.81,.67-1.32,.76-.51,.1-1.05-.06-1.4-.45-.44-.49-.63-1.17-.78-1.82-.15-.66-.24-1.32-.28-1.97-.09-1.31-.03-2.58,.03-3.79,.06-1.21,.13-2.37,.1-3.45-.02-1.09-.16-2.1-.37-3-.41-1.81-1.22-3.14-1.94-3.88-.73-.74-1.26-.98-1.26-.98Z"/>
            <path class="cls-11" d="M221.14,68.81s.03,.03,.09,.08c.08,.06,.18,.12,.29,.21,.13,.09,.29,.2,.5,.31,.2,.11,.43,.25,.71,.37,1.09,.5,2.83,.99,5,.84,2.15-.15,4.72-.94,7-2.68,2.31-1.7,4.32-4.19,5.96-7.03,.83-1.42,1.51-2.87,2.25-4.22,.74-1.35,1.56-2.59,2.56-3.58,.99-.99,2.14-1.73,3.33-2.08,.59-.18,1.19-.23,1.77-.22,.58,.02,1.12,.13,1.62,.29,1.01,.33,1.83,.87,2.45,1.44,.62,.57,1.04,1.17,1.33,1.69,.54,1.07,.58,1.75,.62,1.74,0,0,0-.04-.01-.12-.02-.1-.04-.21-.06-.36-.06-.31-.2-.76-.46-1.31-.28-.54-.7-1.16-1.32-1.75-.63-.59-1.45-1.16-2.49-1.51-.52-.17-1.08-.29-1.68-.32-.59-.01-1.22,.03-1.84,.22-1.24,.35-2.43,1.11-3.45,2.11-1.03,1.01-1.87,2.27-2.62,3.63-.76,1.35-1.43,2.81-2.25,4.21-1.63,2.82-3.61,5.28-5.88,6.97-2.24,1.73-4.75,2.52-6.87,2.69-2.13,.17-3.85-.28-4.94-.75-1.1-.47-1.62-.9-1.64-.87Z"/>
            <path class="cls-11" d="M220.02,63.71s.14,.12,.42,.29c.28,.17,.7,.39,1.24,.61,.54,.23,1.21,.44,1.97,.62,.76,.16,1.61,.28,2.51,.3,.9,.01,1.75-.07,2.52-.2,.76-.15,1.44-.33,1.99-.54,.55-.2,.98-.4,1.27-.56,.29-.16,.44-.25,.43-.27-.02-.05-.66,.29-1.76,.65-.55,.18-1.22,.35-1.97,.47-.75,.12-1.59,.19-2.47,.18-.88-.02-1.71-.13-2.46-.28-.75-.16-1.41-.35-1.95-.56-1.09-.4-1.71-.77-1.74-.72Z"/>
          </g>
        </g>
        <path class="cls-8" d="M248.94,98.81c-.09,.06-.23-.5-.86-.77-.32-.13-.72-.11-1.23-.01-.5,.08-1.05,.18-1.62,.3-2.29,.48-4.05,1.22-4.11,1.08-.06-.12,1.65-1.09,4-1.59,.59-.13,1.15-.21,1.67-.26,.5-.07,1.05-.07,1.45,.15,.4,.21,.58,.54,.65,.75,.08,.22,.08,.35,.05,.36Z"/>
      </g>
      <g>
        <path class="cls-5" d="M186.39,156.53c.23,.34,1.82,2.27,2.16,4.2s4.66,27.01,5.79,30.49c1.41,4.35,4.32,13.22,15.89,9.9,8.01-2.3,8.29-14.5,2.84-21.2-5.45-6.7-14.53-25.88-15.21-28.38-.68-2.5-7.15-10.04-14.64-12-7.49-1.96-11.24-2.04-13.96-5.64-2.72-3.59-6.13-5.41-7.72-2.69-1.59,2.72,7.72,10.9,7.72,10.9l13.06,12.49,4.09,1.93Z"/>
        <path class="cls-5" d="M161.35,141.61s-5.77-7.05-9.52-4.08c0,0,4.88,6.52,6.52,8.3,1.65,1.78,5.93,3.03,5.93,3.03,0,0,4.28,4.94,6.59,5.6,2.31,.66,3.76,0,3.76,0,0,0,.07,1.12,3.69,1.65s13.24-.46,13.24-.46l5.94-4.98s-2.97-4.97-7.52-5.1c-4.55-.13-7.91,3.36-7.91,3.36l-3.95-.07-2.44-3.16s.47-8.31-4.48-7.38c0,0-.18-2.66-2.28-2.92-2.11-.26-2.7,1.91-2.7,1.91,0,0,.44-3.27-1.34-3.93-1.78-.66-2.64,.13-3.16,1.05-.53,.92-.36,7.18-.36,7.18Z"/>
        <path class="cls-7" d="M175.09,154.46c-.06,.04-.7-.68-1.65-1.93-.47-.63-1.03-1.38-1.59-2.26-.28-.41-.58-.97-.69-1.54-.13-.57-.2-1.16-.26-1.76-.19-2.4-.09-4.57,0-6.13,.1-1.56,.23-2.53,.3-2.52,.07,0,.07,.97,.07,2.53,0,1.56-.03,3.72,.15,6.08,.05,.59,.12,1.16,.24,1.69,.1,.54,.32,.95,.6,1.41,.53,.88,1.05,1.65,1.48,2.3,.87,1.3,1.41,2.1,1.36,2.14Z"/>
        <path class="cls-7" d="M166.22,150.93s-.51-.65-.73-1.9c-.24-1.24-.31-2.99-.22-4.89,.19-3.82,.81-6.85,.95-6.83,.14,.02-.24,3.08-.43,6.85-.09,1.89-.07,3.6,.07,4.81,.12,1.23,.44,1.91,.37,1.96Z"/>
        <path class="cls-7" d="M164.59,149.21c-.05,.05-.65-.48-1.52-1.43-.21-.24-.45-.51-.68-.8-.23-.32-.5-.57-.69-1.07-.25-.87-.33-1.8-.41-2.78-.13-1.96-.12-3.73-.08-5.02,.04-1.28,.12-2.07,.19-2.07,.16,0,.18,3.17,.41,7.05,.07,.96,.15,1.9,.35,2.67,.09,.31,.38,.67,.58,.96,.21,.28,.42,.56,.62,.83,.78,1,1.29,1.62,1.23,1.67Z"/>
        <path class="cls-7" d="M182.07,148.92s-.37,.06-1.05,.07c-.78,0-1.75,.02-2.91,.03h-.08s-.05-.07-.05-.07c-.74-.91-1.85-1.98-2.58-3.52l-.02-.05v-.05c0-1.18,.03-2.48-.32-3.76-.18-.63-.46-1.26-.88-1.79-.42-.55-.97-.94-1.66-1.02-.43-.06-.87,0-1.29,.1l-.3,.08-.02-.31c-.04-.64-.17-1.27-.49-1.76-.31-.5-.79-.85-1.33-1.03-.5-.2-1.05-.04-1.5,.24-.45,.28-.82,.68-1.07,1.11l-.37,.65-.04-.74c-.06-1.14-.13-2.24-.72-2.89-.59-.64-1.47-.76-2.09-.66-.64,.1-1.08,.4-1.34,.64-.25,.24-.35,.41-.37,.4-.01,0,.04-.2,.28-.49,.24-.28,.69-.65,1.39-.79,.67-.14,1.65-.08,2.4,.66,.74,.78,.81,1.97,.9,3.11l-.41-.09c.28-.5,.68-.96,1.2-1.3,.5-.34,1.23-.56,1.91-.31,.62,.2,1.23,.62,1.61,1.23,.38,.6,.53,1.31,.58,2.01l-.32-.24c.47-.12,.97-.18,1.49-.11,.82,.08,1.56,.61,2,1.21,.47,.6,.77,1.29,.96,1.98,.37,1.38,.31,2.72,.29,3.9l-.02-.1c.67,1.49,1.71,2.53,2.45,3.51l-.13-.07c1.16,.05,2.13,.09,2.9,.13,.68,.04,1.05,.08,1.05,.11Z"/>
        <path class="cls-7" d="M192.44,145.76c-.03,.16-2.26-.56-4.96,.08-2.71,.59-4.41,2.21-4.5,2.08-.04-.04,.31-.51,1.06-1.07,.75-.57,1.92-1.19,3.33-1.51,1.41-.32,2.73-.26,3.65-.08,.92,.18,1.44,.45,1.42,.51Z"/>
      </g>
      <g>
        <path class="cls-7" d="M333.09,138.69c-.54-.25-1.17-.12-1.74,.05-2.63,.78-5.07,2.1-7.31,3.69l1.93,6.65c.75-1.44,4.24-3.33,5.46-4.4,1.22-1.07,2.41-2.4,2.54-4.02,.07-.77-.19-1.65-.89-1.98Z"/>
        <path class="cls-5" d="M290.32,195.77s-.97-8.02-.13-14.82c.55-4.42,4.21-17.5,4.47-21.58,.26-4.09,.38-6,2.94-7.92,2.55-1.92,2.55-1.02,6.13-3.19,3.58-2.17,4.34-3.7,9.71-3.96,5.36-.26,9.58,11.24,9.58,11.24,0,0-.26,2.43-1.28,3.07-1.02,.64-2.3,.77-5.49,.64s-6.39,.64-6.64,2.55,.13,8.94,1.4,13.67c1.28,4.73,.26,10.22-.64,14.82-.89,4.6-2.74,14.64-10.09,15.45-8.63,.96-9.96-9.96-9.96-9.96Z"/>
        <path class="cls-5" d="M303.4,153.4s3.97-.4,4.64-1.18c.67-.78,2.87-8.43,4.12-10.18s2.1-2.1,3.45-1.81c0,0-.18-3.43,2.91-3.92,0,0,1.93-.3,2.24,4.35,0,0-.33-4.42,2.95-5.93,.8-.37,1.77-.09,2.16,.7,.08,.17,.15,.36,.19,.56,.2,1.06,.46,5.98,.46,5.98,0,0,.36,6.7,.46,6.41,.1-.29,4.13-9.31,4.7-10.18,.51-.77,.95-1.62,2.85-1.48,.62,.05,1.16,.46,1.35,1.06,.06,.19-.11,1.17-.17,1.43-.63,2.56-2.34,9.72-3.01,10.89-.67,1.16-6.84,7.67-9.36,7.88s-3.97,.01-3.97,.01l-15.99-4.59Z"/>
        <path class="cls-7" d="M311.6,156.77c-.06-.05,.58-.79,1.41-2.12,.4-.67,.87-1.48,1.2-2.44,.17-.48,.28-.99,.34-1.54,.04-.57,.09-1.15,.13-1.75,.19-2.4,.39-4.57,.55-6.15,.17-1.57,.31-2.54,.38-2.54,.07,0,.06,.98-.01,2.56-.08,1.58-.22,3.76-.4,6.17-.05,.6-.1,1.18-.14,1.76-.07,.58-.2,1.15-.39,1.65-.37,1.01-.89,1.82-1.34,2.48-.92,1.31-1.67,1.97-1.72,1.92Z"/>
        <path class="cls-7" d="M320.74,140.22c.07,0,.16,.96,.23,2.51,.08,1.55,.15,3.7,.19,6.07,0,.59,.02,1.17,.03,1.73,0,.55,.06,1.11-.07,1.67-.26,1.06-.75,1.87-1.16,2.54-.84,1.33-1.5,2.04-1.55,2-.06-.05,.49-.84,1.23-2.19,.36-.67,.8-1.5,1.01-2.45,.1-.45,.03-.98,.03-1.55-.01-.56-.03-1.14-.04-1.73-.05-2.37-.06-4.52-.04-6.08,.02-1.56,.06-2.52,.14-2.52Z"/>
        <path class="cls-7" d="M326.89,147.74c.06-.03,.33,.44,.35,1.27,0,.42-.03,.9-.22,1.44-.2,.51-.47,1.03-.78,1.55-1.26,2.09-2.52,3.59-2.63,3.51-.12-.09,.95-1.73,2.18-3.78,.3-.51,.59-1.01,.79-1.46,.18-.44,.27-.9,.3-1.27,.07-.76-.05-1.23,.02-1.25Z"/>
        <path class="cls-7" d="M299.55,153.36c0-.22,3.83,.44,8.2-1.31,.07-.02,.14-.05,.21-.07l-.16,.15c.81-2.13,1.58-4.03,2.15-5.4,.57-1.37,.96-2.2,1.02-2.17,.07,.03-.2,.9-.69,2.3s-1.19,3.33-2,5.46l-.04,.11-.11,.04c-.07,.02-.14,.05-.21,.07-1.11,.37-2.18,.68-3.18,.89-1,.22-1.95,.24-2.71,.22-1.54-.05-2.47-.22-2.47-.29Z"/>
      </g>
    </g>
  </g>
</svg>